<svg height="200" width="200">
<polygon points="96.3269,129.02 96.3883,129.019 96.6143,129.055 96.6853,129.052 96.6866,129.047 96.6912,129.045 96.6893,129.043 96.6918,129.04 96.7118,129.03 96.7138,129.024 96.7249,129.02 96.7291,129.016 96.7322,128.618 96.7314,128.615 96.7129,128.599 96.7057,128.597 96.698,128.598 96.6892,128.603 96.6818,128.61 96.6775,128.631 96.6723,128.637 96.6468,128.652 96.6216,128.662 96.5858,128.666 96.5797,128.668 96.5529,128.67 96.5319,128.675 96.5026,128.696 96.479,128.703 96.4601,128.701 96.4308,128.693 96.3852,128.684 96.373,128.68 96.3631,128.67 96.3598,128.652 96.3534,128.636 96.347,128.631 96.3338,128.628 96.3174,128.631 96.2946,128.64" style="stroke:black;stroke-width:1" />
<polygon points="95.6594,130.859 95.8904,130.861 95.89,130.905 96.005,130.905 96.0048,130.92 96.1196,130.92 96.1198,130.82 96.1197,130.645 95.8922,130.643 95.8918,130.658 95.7772,130.657 95.777,130.686 95.6032,130.685 95.6025,130.816 95.6599,130.816" style="stroke:black;stroke-width:1" />
<polygon points="97.6634,131.066 97.8284,131.063 97.8265,130.992 97.8704,130.992 97.872,130.901 97.875,130.885 97.8726,130.804 97.8737,130.668 97.7792,130.668 97.7798,130.568 97.6629,130.555 97.6607,130.727 97.6215,130.727 97.6212,130.787 97.6104,130.796 97.6129,130.8 97.6114,130.808 97.5921,130.808 97.5919,130.815 97.5816,130.816 97.5828,130.821 97.579,130.824 97.5794,130.828 97.5823,130.825 97.5845,130.829 97.582,130.993 97.5671,130.993 97.563,131.066" style="stroke:black;stroke-width:1" />
<polygon points="98.9968,131.854 99.0956,131.868 99.1837,131.897 99.1997,131.91 99.2096,131.91 99.2149,131.906 99.2459,131.916 99.279,131.92 99.3454,131.94 99.3689,131.943 99.4149,131.957 99.4542,131.971 99.4803,131.977 99.4804,131.85 99.4806,131.5 98.9965,131.502 98.9962,131.715" style="stroke:black;stroke-width:1" />
<polygon points="97.8407,129.556 97.9526,129.551 97.9438,129.46 98.155,129.45 98.1464,129.318 98.1652,129.317 98.1642,129.303 98.1833,129.302 98.1816,129.272 98.2782,129.269 98.2744,129.215 98.2667,129.206 98.2628,129.194 98.2583,129.19 98.2486,129.186 98.2439,129.18 97.9252,129.193 97.7312,129.204 97.7397,129.293 97.7013,129.295 97.7105,129.384 97.7197,129.472 97.8325,129.466" style="stroke:black;stroke-width:1" />
<polygon points="95.544,130.685 95.6032,130.685 95.777,130.686 95.7772,130.657 95.8918,130.658 95.8922,130.643 96.1197,130.645 96.12,130.539 96.0914,130.535 96.0064,130.535 96.0063,130.483 95.9976,130.483 95.6609,130.481 95.6613,130.379 95.5659,130.378 95.5655,130.354 95.5445,130.358" style="stroke:black;stroke-width:1" />
<polygon points="98.7739,130.17 98.774,130.173 98.8879,130.171 98.8877,130.168 99.1169,130.159 99.2335,130.155 99.234,130.16 99.2968,130.157 99.2898,130.138 99.2892,130.126 99.2931,130.111 99.2907,130.101 99.2868,130.097 99.2691,130.086 99.2612,130.076 99.2689,130.049 99.2665,130.033 99.2624,130.028 99.2579,130.007 99.2611,129.985 99.2597,129.971 99.2419,129.96 99.2353,129.95 99.2434,129.914 99.2405,129.909 99.2346,129.909 99.2125,129.918 99.2011,129.92 99.1938,129.917 99.1907,129.911 99.1908,129.903 99.2058,129.883 99.2096,129.87 99.2067,129.864 99.1999,129.859 99.1785,129.85 98.9827,129.858 98.9827,129.86 98.8727,129.865 98.7625,129.868 98.7658,129.951" style="stroke:black;stroke-width:1" />
<polygon points="96.0067,129.254 96.1342,129.247 96.1277,129.021 96.3269,129.02 96.2946,128.64 96.2865,128.642 96.2791,128.647 96.25,128.65 96.2306,128.655 96.2242,128.667 96.2163,128.696 96.2128,128.699 96.1988,128.705 96.1781,128.71 96.1632,128.718 96.1582,128.724 96.1512,128.747 96.1409,128.757 96.1268,128.762 96.096,128.768 96.0729,128.771 96.0712,128.772 96.0738,128.774 96.056,128.784 96.0378,128.787 96.0211,128.787 95.9605,128.771 95.9472,128.771 95.973,128.984 96.002,129.188" style="stroke:black;stroke-width:1" />
<polygon points="95.5212,129.59 95.6347,129.59 95.6352,129.544 95.638,129.542 95.6679,129.548 95.6599,129.456 95.6633,129.456 95.6468,129.292 95.6091,129.297 95.5714,129.298 95.5346,129.303 95.5154,129.301 95.4953,129.306 95.4764,129.303 95.4453,129.307 95.4012,129.308 95.3699,129.312 95.3614,129.31 95.3582,129.305 95.1806,129.305 95.1805,129.305 95.1846,129.522 95.185,129.567 95.5211,129.569" style="stroke:black;stroke-width:1" />
<polygon points="98.6821,130.652 98.7586,130.65 98.7626,130.723 98.8008,130.722 98.8012,130.729 98.9125,130.728 99.0826,130.727 99.0817,130.643 99.139,130.643 99.1378,130.599 99.1362,130.555 99.0789,130.556 99.0752,130.468 99.0597,130.468 99.0583,130.425 98.8997,130.429 98.8997,130.431 98.882,130.431 98.7299,130.433 98.7351,130.565 98.6782,130.567" style="stroke:black;stroke-width:1" />
<polygon points="95.9853,130.273 96.216,130.26 96.2146,130.245 96.4485,130.229 96.5058,130.226 96.496,130.111 96.4849,130.011 96.3675,130.016 95.9636,130.04 95.9767,130.184" style="stroke:black;stroke-width:1" />
<polygon points="95.9636,130.04 96.3675,130.016 96.4849,130.011 96.4918,130.011 96.4119,129.769 96.3528,129.773 96.3533,129.776 96.261,129.781 96.2591,129.789 96.1704,129.798 96.1725,129.823 96.0585,129.829 96.0599,129.844 95.9462,129.85 95.9484,129.88" style="stroke:black;stroke-width:1" />
<polygon points="95.7406,129.27 95.9932,129.256 96.0067,129.254 96.002,129.188 95.973,128.984 95.9472,128.771 95.9284,128.77 95.9084,128.774 95.844,128.795 95.7943,128.803 95.787,128.806 95.7779,128.814 95.7695,128.827 95.7664,128.847 95.768,128.875 95.7655,128.893 95.7429,128.923 95.7118,128.956 95.7049,128.968 95.7006,128.996 95.6915,129.011 95.6804,129.021 95.6986,129.16 95.7047,129.167 95.701,129.175 95.712,129.182 95.712,129.187 95.7224,129.197 95.724,129.202 95.7151,129.213 95.7043,129.21 95.6904,129.209 95.6803,129.223 95.6932,129.234 95.7,129.234 95.7039,129.238 95.7043,129.245 95.709,129.25 95.7298,129.259 95.7388,129.265" style="stroke:black;stroke-width:1" />
<polygon points="96.0229,129.569 96.3297,129.55 96.4236,129.544 96.409,129.379 96.2151,129.263 96.2044,129.241 96.1974,129.237 96.1982,129.231 96.194,129.231 96.1911,129.224 96.1641,129.223 96.1655,129.246 96.1342,129.247 96.0067,129.254 95.9932,129.256" style="stroke:black;stroke-width:1" />
<polygon points="98.9131,130.903 99.1026,130.901 99.1035,130.93 99.1084,130.93 99.1782,130.93 99.1778,130.901 99.48,130.9 99.4808,130.851 99.4808,130.639 99.4487,130.629 99.432,130.617 99.4231,130.614 99.4162,130.615 99.401,130.625 99.3726,130.62 99.3654,130.616 99.3481,130.598 99.3363,130.591 99.3318,130.582 99.2525,130.583 99.2527,130.597 99.1378,130.599 99.139,130.643 99.0817,130.643 99.0826,130.727 98.9125,130.728" style="stroke:black;stroke-width:1" />
<polygon points="97.8153,130.456 98.2907,130.445 98.2876,130.371 98.3838,130.368 98.3772,130.221 98.3323,130.222 98.3289,130.151 98.2836,130.152 97.9127,130.162 97.8124,130.167 97.817,130.239 97.804,130.239" style="stroke:black;stroke-width:1" />
<polygon points="97.1704,130.997 97.2751,130.996 97.2727,130.711 97.1417,130.712 97.1416,130.705 96.8886,130.703 96.8873,130.993 97.1467,130.994 97.1471,130.997" style="stroke:black;stroke-width:1" />
<polygon points="98.5112,131.631 98.512,131.57 98.609,131.57 98.6085,131.445 98.6243,131.445 98.6255,131.425 98.6083,131.425 98.6085,131.348 98.608,131.348 98.402,131.351 98.4065,131.35 98.4028,131.347 98.4042,131.344 98.411,131.343 98.4119,131.339 98.4077,131.329 98.4163,131.316 98.4151,131.308 98.427,131.303 98.4246,131.301 98.427,131.301 98.4267,131.291 98.4346,131.289 98.4299,131.287 98.4354,131.284 98.4373,131.279 98.3149,131.277 98.1219,131.275 98.1229,131.35 98.0286,131.351 98.0321,131.506 98.0414,131.499 98.062,131.491 98.1165,131.485 98.1396,131.484 98.1797,131.494 98.2057,131.497 98.2176,131.496 98.2551,131.487 98.2611,131.488 98.3229,131.522 98.3364,131.525 98.4001,131.561 98.4701,131.614 98.4954,131.623" style="stroke:black;stroke-width:1" />
<polygon points="95.1958,130.353 95.3999,130.352 95.4,130.353 95.4067,130.353 95.5653,130.354 95.5673,130.197 95.5741,129.919 95.5143,129.918 95.3755,129.916 95.1875,129.917 95.1891,130.005 95.196,130.31" style="stroke:black;stroke-width:1" />
<polygon points="95.196,131.426 95.658,131.428 95.7716,131.428 95.7717,131.166 95.6586,131.165 95.6582,131.209 95.5427,131.209 95.5426,131.253 95.1965,131.252 95.1964,131.271" style="stroke:black;stroke-width:1" />
<polygon points="96.7514,130.444 96.979,130.434 96.9777,130.419 97.0752,130.415 97.0699,130.358 97.255,130.349 97.2471,130.277 97.2378,130.126 96.8297,130.143 96.8277,130.244 96.7524,130.244" style="stroke:black;stroke-width:1" />
<polygon points="97.0468,131.458 97.0933,131.46 97.1368,131.47 97.1805,131.485 97.25,131.477 97.2695,131.479 97.2898,131.486 97.3105,131.498 97.3112,131.497 97.3207,131.481 97.3327,131.468 97.4059,131.414 97.4874,131.384 97.5031,131.381 97.5263,131.382 97.5744,131.4 97.6068,131.416 97.6518,131.429 97.6573,131.285 97.5575,131.284 97.1586,131.29 97.1524,131.43 97.047,131.43" style="stroke:black;stroke-width:1" />
<polygon points="97.2174,129.94 97.5261,129.925 97.5371,129.93 97.5274,129.837 97.6037,129.833 97.5959,129.745 97.6338,129.742 97.6254,129.655 97.5097,129.662 97.5038,129.603 97.3824,129.608 97.3798,129.564 97.2696,129.569 97.2681,129.554 97.1568,129.561 97.1757,129.795 97.1782,129.824 97.1974,129.823 97.2055,129.911 97.1868,129.912 97.1891,129.941" style="stroke:black;stroke-width:1" />
<polygon points="96.3466,129.717 96.7475,129.695 96.7332,129.516 96.6271,129.377 96.409,129.379 96.4236,129.544 96.3297,129.55" style="stroke:black;stroke-width:1" />
<polygon points="96.8297,130.143 97.2378,130.126 97.2261,129.976 97.2207,129.976 97.2174,129.94 97.1891,129.941 97.1868,129.912 97.2055,129.911 97.1974,129.823 97.1782,129.824 97.1757,129.795 96.9623,129.806 96.8166,129.809 96.7564,129.813 96.7478,129.917 96.7743,129.932 96.7678,129.945 96.7582,129.952 96.7595,129.96 96.7539,129.964 96.7527,129.971 96.7494,129.971 96.7497,129.982 96.7537,129.987 96.7392,130.003 96.7455,130.005 96.7486,130.009 96.7476,130.028 96.7436,130.031 96.7479,130.041 96.7445,130.043 96.7444,130.048 96.7454,130.049 96.7878,130.048 96.7936,130.108 96.83,130.107" style="stroke:black;stroke-width:1" />
<polygon points="95.6394,131.707 96.1194,131.72 96.1225,131.617 96.1177,131.617 96.1171,131.487 95.6577,131.485 95.658,131.514 95.6192,131.514 95.6186,131.617 95.6015,131.617 95.6005,131.706" style="stroke:black;stroke-width:1" />
<polygon points="97.5646,129.035 97.677,129.028 97.676,129.013 97.9044,129.003 97.9009,128.958 97.8908,128.945 97.8882,128.932 97.8882,128.936 97.8866,128.93 97.8705,128.908 97.8566,128.898 97.8545,128.884 97.8606,128.865 97.855,128.84 97.8383,128.825 97.8204,128.817 97.8087,128.815 97.7841,128.797 97.7782,128.786 97.779,128.775 97.7833,128.768 97.801,128.758 97.8116,128.734 97.813,128.722 97.8085,128.73 97.8081,128.737 97.8055,128.737 97.8061,128.732 97.8174,128.709 97.809,128.68 97.8279,128.623 97.8246,128.607 97.8187,128.6 97.806,128.593 97.7809,128.592 97.7534,128.597 97.7518,128.598 97.7539,128.598 97.7378,128.598 97.7277,128.595 97.7126,128.583 97.6382,128.585 97.6454,128.676 97.5274,128.682 97.533,128.741 97.5133,128.743 97.5163,128.772 97.4172,128.779 97.4243,128.844 97.4255,128.853 97.5447,128.845" style="stroke:black;stroke-width:1" />
<polygon points="98.609,131.57 98.704,131.57 98.7049,131.641 98.8983,131.641 98.8976,131.714 98.9962,131.715 98.9965,131.502 98.9975,131.384 98.998,131.375 99,131.375 98.9984,131.348 98.7541,131.347 98.6085,131.348 98.6083,131.425 98.6255,131.425 98.6243,131.445 98.6085,131.445" style="stroke:black;stroke-width:1" />
<polygon points="95.9462,129.85 96.0599,129.844 96.0585,129.829 96.1725,129.823 96.1704,129.798 96.2591,129.789 96.261,129.781 96.3533,129.776 96.3528,129.773 96.3466,129.717 96.3297,129.55 96.0229,129.569 95.886,129.578 95.8903,129.626 95.888,129.626 95.8889,129.638 95.907,129.838 95.9447,129.836" style="stroke:black;stroke-width:1" />
<polygon points="98.3772,130.221 98.6618,130.214 98.6603,130.172 98.7739,130.17 98.7658,129.951 98.6521,129.954 98.652,129.95 98.6138,129.951 98.6131,129.921 98.5371,129.924 98.5357,129.894 98.4213,129.898 98.4194,129.839 98.3057,129.843 98.3087,129.931 98.2712,129.932 98.2836,130.152 98.3289,130.151 98.3323,130.222" style="stroke:black;stroke-width:1" />
<polygon points="95.1806,129.305 95.3582,129.305 95.3614,129.31 95.3699,129.312 95.4012,129.308 95.4453,129.307 95.4764,129.303 95.4953,129.306 95.5154,129.301 95.5346,129.303 95.5714,129.298 95.6091,129.297 95.6468,129.292 95.6846,129.292 95.738,129.288 95.7355,129.28 95.7437,129.277 95.7406,129.27 95.7388,129.265 95.7298,129.259 95.709,129.25 95.7043,129.245 95.7039,129.238 95.7,129.234 95.6932,129.234 95.6803,129.223 95.6904,129.209 95.7043,129.21 95.7151,129.213 95.724,129.202 95.7224,129.197 95.712,129.187 95.712,129.182 95.701,129.175 95.7047,129.167 95.6986,129.16 95.6804,129.021 95.6636,129.033 95.6395,129.041 95.593,129.046 95.5742,129.053 95.572,129.055 95.5766,129.053 95.5701,129.058 95.5676,129.068 95.5653,129.087 95.5671,129.094 95.5644,129.102 95.5547,129.114 95.5446,129.12 95.5294,129.121 95.5237,129.119 95.5122,129.111 95.5062,129.102 95.494,129.095 95.4753,129.092 95.4586,129.099 95.4491,129.099 95.4278,129.082 95.3943,129.073 95.3765,129.074 95.3675,129.077 95.3427,129.095 95.3151,129.1 95.2814,129.137 95.2679,129.144 95.2558,129.147 95.2455,129.147 95.2332,129.138 95.2123,129.115 95.1798,129.105" style="stroke:black;stroke-width:1" />
<polygon points="96.1188,131.168 96.5789,131.167 96.5796,130.992 96.5421,130.992 96.5422,130.948 96.5231,130.948 96.5232,130.905 96.485,130.905 96.484,130.818 96.1198,130.82 96.1196,130.92" style="stroke:black;stroke-width:1" />
<polygon points="96.1198,130.82 96.484,130.818 96.5036,130.818 96.504,130.701 96.5597,130.702 96.5596,130.688 96.5801,130.687 96.5795,130.607 96.5846,130.515 96.5816,130.505 96.4798,130.504 96.4799,130.509 96.1201,130.532 96.12,130.539 96.1197,130.645" style="stroke:black;stroke-width:1" />
<polygon points="98.7299,130.433 98.882,130.431 98.8997,130.431 98.8997,130.429 99.0583,130.425 99.1343,130.423 99.1326,130.379 99.1283,130.379 99.1275,130.373 99.1169,130.159 98.8877,130.168 98.8879,130.171 98.774,130.173 98.7739,130.17 98.6603,130.172 98.6618,130.214 98.6652,130.304 98.7245,130.303" style="stroke:black;stroke-width:1" />
<polygon points="95.6577,131.485 96.1171,131.487 96.1167,131.414 96.1188,131.168 95.7717,131.166 95.7716,131.428 95.658,131.428" style="stroke:black;stroke-width:1" />
<polygon points="96.409,129.379 96.6271,129.377 96.6264,129.368 96.6199,129.357 96.625,129.347 96.6182,129.339 96.6173,129.327 96.6132,129.323 96.6168,129.316 96.6176,129.295 96.6233,129.291 96.6179,129.285 96.6186,129.278 96.6067,129.275 96.6061,129.268 96.6214,129.259 96.6188,129.25 96.627,129.248 96.6342,129.242 96.6376,129.241 96.6405,129.242 96.6445,129.25 96.652,129.253 96.6549,129.251 96.6518,129.233 96.6564,129.233 96.6464,129.198 96.6143,129.055 96.3883,129.019 96.3269,129.02 96.1277,129.021 96.1342,129.247 96.1655,129.246 96.1641,129.223 96.1911,129.224 96.194,129.231 96.1982,129.231 96.1974,129.237 96.2044,129.241 96.2151,129.263" style="stroke:black;stroke-width:1" />
<polygon points="97.6254,129.655 97.62,129.597 97.7379,129.591 97.7363,129.562 97.8407,129.556 97.8325,129.466 97.7197,129.472 97.7105,129.384 97.4854,129.396 97.4823,129.369 97.3655,129.376 97.3642,129.362 97.2513,129.368 97.2593,129.468 97.2681,129.554 97.2696,129.569 97.3798,129.564 97.3824,129.608 97.5038,129.603 97.5097,129.662" style="stroke:black;stroke-width:1" />
<polygon points="97.8737,130.668 98.095,130.667 98.35,130.668 98.3499,130.635 98.3306,130.633 98.3305,130.628 98.3375,130.628 98.3302,130.444 98.2907,130.445 97.8153,130.456 97.8211,130.573 97.7798,130.568 97.7792,130.668" style="stroke:black;stroke-width:1" />
<polygon points="97.1586,131.29 97.5575,131.284 97.6573,131.285 97.6558,131.199 97.6586,131.188 97.6634,131.066 97.563,131.066 97.5671,130.993 97.2751,130.996 97.1704,130.997 97.1599,131.255" style="stroke:black;stroke-width:1" />
<polygon points="97.214,129.169 97.2332,129.168 97.237,129.208 97.3498,129.202 97.3484,129.189 97.3889,129.186 97.4254,129.185 97.4632,129.181 97.4596,129.144 97.5752,129.138 97.5646,129.035 97.5447,128.845 97.4255,128.853 97.4243,128.844 97.3498,128.849 97.2392,128.855 97.2379,128.869 97.2465,128.945 97.1928,128.948" style="stroke:black;stroke-width:1" />
<polygon points="99.1378,130.599 99.2527,130.597 99.2525,130.583 99.3318,130.582 99.3354,130.57 99.3474,130.562 99.3667,130.539 99.3723,130.536 99.3777,130.517 99.3818,130.502 99.385,130.501 99.3843,130.498 99.3907,130.489 99.4006,130.482 99.405,130.471 99.4015,130.458 99.3875,130.435 99.3876,130.403 99.3676,130.394 99.3682,130.385 99.3806,130.382 99.3901,130.375 99.3922,130.369 99.387,130.348 99.3999,130.318 99.3969,130.307 99.3849,130.292 99.3836,130.272 99.3805,130.265 99.3477,130.245 99.3383,130.23 99.3317,130.2 99.3272,130.192 99.3178,130.185 99.2968,130.157 99.234,130.16 99.2335,130.155 99.1169,130.159 99.1275,130.373 99.1283,130.379 99.1326,130.379 99.1343,130.423 99.0583,130.425 99.0597,130.468 99.0752,130.468 99.0789,130.556 99.1362,130.555" style="stroke:black;stroke-width:1" />
<polygon points="97.6629,130.555 97.7798,130.568 97.8211,130.573 97.8153,130.456 97.804,130.239 97.6633,130.24 97.5225,130.246 97.5238,130.265 97.2471,130.277 97.255,130.349 97.3534,130.345 97.3667,130.523 97.3568,130.522 97.3569,130.55 97.3763,130.55 97.625,130.551" style="stroke:black;stroke-width:1" />
<polygon points="98.9968,131.854 98.9962,131.715 98.8976,131.714 98.8983,131.641 98.7049,131.641 98.704,131.57 98.609,131.57 98.512,131.57 98.5112,131.631 98.5112,131.631 98.5323,131.648 98.5576,131.674 98.5824,131.687 98.5885,131.693 98.6491,131.729 98.6981,131.75 98.7152,131.762 98.7201,131.76 98.7334,131.758 98.7488,131.76 98.7874,131.773 98.8744,131.813 98.9488,131.839 98.9764,131.846 98.989,131.853" style="stroke:black;stroke-width:1" />
<polygon points="97.3498,128.849 97.4243,128.844 97.4172,128.779 97.5163,128.772 97.5133,128.743 97.533,128.741 97.5274,128.682 97.6454,128.676 97.6382,128.585 97.7126,128.583 97.7064,128.575 97.7083,128.575 97.706,128.573 97.7042,128.538 97.6967,128.522 97.6956,128.496 97.6818,128.458 97.6725,128.446 97.6592,128.441 97.6181,128.435 97.6101,128.434 97.595,128.439 97.4922,128.411 97.4663,128.404 97.4425,128.404 97.4214,128.409 97.4062,128.422 97.3991,128.437 97.3962,128.459 97.3894,128.471 97.3814,128.477 97.3515,128.49 97.3343,128.506 97.3033,128.542 97.275,128.558 97.2338,128.56 97.2121,128.559 97.1839,128.571 97.2595,128.597 97.2337,128.645 97.236,128.68 97.2936,128.677 97.2984,128.691 97.3045,128.75 97.337,128.748 97.3385,128.762 97.3408,128.763" style="stroke:black;stroke-width:1" />
<polygon points="97.2471,130.277 97.5238,130.265 97.5225,130.246 97.6633,130.24 97.804,130.239 97.817,130.239 97.8124,130.167 97.8011,129.95 97.7682,129.951 97.7659,129.913 97.5812,129.922 97.5817,129.928 97.5371,129.93 97.5261,129.925 97.2174,129.94 97.2207,129.976 97.2261,129.976 97.2378,130.126" style="stroke:black;stroke-width:1" />
<polygon points="96.12,130.539 96.1201,130.532 96.4799,130.509 96.4798,130.504 96.4485,130.229 96.2146,130.245 96.216,130.26 95.9853,130.273 95.9897,130.317 95.9962,130.313 95.9976,130.483 96.0063,130.483 96.0064,130.535 96.0914,130.535" style="stroke:black;stroke-width:1" />
<polygon points="97.6518,131.429 97.6667,131.431 97.7083,131.428 97.7452,131.434 97.8219,131.471 97.9879,131.516 98.0053,131.514 98.0317,131.506 98.0321,131.506 98.0286,131.351 98.1229,131.35 98.1219,131.275 98.0274,131.275 98.0254,131.2 97.9274,131.2 97.9256,131.136 97.83,131.137 97.8284,131.063 97.6634,131.066 97.6586,131.188 97.6558,131.199 97.6573,131.285" style="stroke:black;stroke-width:1" />
<polygon points="96.2369,131.723 96.5461,131.733 96.5461,131.733 96.5446,131.727 96.5396,131.727 96.5312,131.721 96.5279,131.715 96.5246,131.705 96.5254,131.7 96.5296,131.697 96.5504,131.698 96.5691,131.691 96.6045,131.692 96.6254,131.687 96.6412,131.687 96.6504,131.69 96.6587,131.697 96.657,131.705 96.6637,131.705 96.7666,131.647 96.7841,131.639 96.8107,131.629 96.8328,131.623 96.5844,131.619 96.43,131.617 96.4119,131.601 96.4055,131.589 96.3992,131.586 96.3872,131.571 96.3743,131.57 96.3638,131.56 96.355,131.561 96.3343,131.549 96.3216,131.548 96.3002,131.534 96.2904,131.522 96.2862,131.501 96.2875,131.493 96.2796,131.487 96.2689,131.485 96.2635,131.482 96.2527,131.466 96.2432,131.462 96.223,131.463 96.2177,131.449 96.1842,131.433 96.1543,131.425 96.1457,131.414 96.1276,131.416 96.1167,131.414 96.1171,131.487 96.1177,131.617 96.1225,131.617 96.1194,131.72" style="stroke:black;stroke-width:1" />
<polygon points="96.496,130.111 96.7936,130.108 96.7878,130.048 96.7454,130.049 96.7444,130.048 96.7445,130.043 96.7479,130.041 96.7436,130.031 96.7476,130.028 96.7486,130.009 96.7455,130.005 96.7392,130.003 96.7537,129.987 96.7497,129.982 96.7494,129.971 96.7527,129.971 96.7539,129.964 96.7595,129.96 96.7582,129.952 96.7678,129.945 96.7743,129.932 96.7478,129.917 96.7564,129.813 96.7475,129.695 96.3466,129.717 96.3528,129.773 96.4119,129.769 96.4918,130.011 96.4849,130.011" style="stroke:black;stroke-width:1" />
<polygon points="99,131.134 99.4806,131.133 99.4808,131.125 99.48,130.9 99.1778,130.901 99.1782,130.93 99.1084,130.93 99.1035,130.93 99.1026,130.901 98.9131,130.903 98.913,130.988 99,130.988" style="stroke:black;stroke-width:1" />
<polygon points="96.8886,130.703 97.1416,130.705 97.14,130.646 97.0421,130.645 97.0415,130.49 96.9831,130.484 96.979,130.434 96.7514,130.444 96.7519,130.507 96.5816,130.505 96.5846,130.515 96.5795,130.607 96.5801,130.687 96.695,130.687 96.6952,130.702" style="stroke:black;stroke-width:1" />
<polygon points="98.1219,131.275 98.3149,131.277 98.3114,130.989 98.1777,130.988 97.8704,130.992 97.8265,130.992 97.8284,131.063 97.83,131.137 97.9256,131.136 97.9274,131.2 98.0254,131.2 98.0274,131.275" style="stroke:black;stroke-width:1" />
<polygon points="97.7312,129.204 97.9252,129.193 98.2439,129.18 98.2571,129.143 98.2555,129.144 98.2547,129.138 98.2575,129.111 98.2526,129.095 98.2391,129.084 98.2243,129.078 98.2141,129.078 98.1968,129.084 98.1892,129.083 98.186,129.08 98.1872,129.063 98.1978,129.046 98.227,129.026 98.2356,129.015 98.2347,129.002 98.2248,128.991 98.2183,128.962 98.221,128.956 98.2388,128.938 98.2429,128.937 98.2437,128.933 98.2372,128.924 98.2257,128.923 98.2065,128.93 98.1887,128.945 98.1786,128.947 98.1654,128.941 98.1554,128.929 98.1545,128.91 98.1512,128.901 98.1409,128.89 98.1106,128.874 98.1013,128.875 98.0912,128.878 98.0729,128.892 98.0715,128.895 98.0732,128.901 98.0989,128.924 98.1014,128.93 98.0993,128.938 98.0816,128.967 98.0667,128.988 98.058,128.993 98.0484,128.996 98.026,128.992 98.0187,128.994 98.0128,129.012 98.0049,129.022 97.9964,129.028 97.9823,129.03 97.9639,129.025 97.9488,128.995 97.9097,128.975 97.9009,128.958 97.9044,129.003 97.676,129.013 97.677,129.028 97.6932,129.205" style="stroke:black;stroke-width:1" />
<polygon points="95.1978,130.728 95.5437,130.728 95.544,130.685 95.5445,130.358 95.5655,130.354 95.5683,130.354 95.5653,130.354 95.4067,130.353 95.4,130.353 95.3999,130.352 95.1958,130.353 95.1977,130.572" style="stroke:black;stroke-width:1" />
<polygon points="95.5673,130.197 95.7813,130.2 95.7812,130.195 95.9767,130.184 95.9636,130.04 95.9484,129.88 95.8421,129.886 95.8361,129.895 95.8328,129.912 95.8429,129.923 95.5741,129.919" style="stroke:black;stroke-width:1" />
<polygon points="98.7625,129.868 98.8727,129.865 98.9827,129.86 98.9827,129.858 99.1785,129.85 99.1729,129.842 99.1774,129.823 99.1776,129.812 99.1737,129.799 99.1645,129.791 99.1368,129.775 99.1295,129.763 99.1345,129.753 99.1471,129.741 99.1539,129.739 99.1663,129.721 99.1701,129.712 99.1659,129.703 99.1478,129.698 99.1361,129.692 99.1335,129.683 99.1332,129.653 99.1195,129.621 99.1076,129.617 99.0822,129.619 99.074,129.617 99.0665,129.615 99.056,129.607 99.0263,129.588 99.0061,129.571 98.9798,129.555 98.973,129.547 98.9611,129.54 98.963,129.572 98.753,129.579 98.753,129.577 98.7345,129.577 98.7356,129.605 98.7168,129.606 98.7193,129.707 98.6807,129.707 98.6862,129.869" style="stroke:black;stroke-width:1" />
<polygon points="95.5143,129.918 95.5741,129.919 95.8429,129.923 95.8328,129.912 95.8361,129.895 95.8421,129.886 95.9484,129.88 95.9462,129.85 95.9447,129.836 95.907,129.838 95.8889,129.638 95.888,129.626 95.8903,129.626 95.886,129.578 95.7146,129.589 95.6347,129.59 95.5212,129.59" style="stroke:black;stroke-width:1" />
<polygon points="97.9232,129.771 98.3024,129.756 98.3601,129.753 98.3567,129.666 98.4137,129.664 98.4117,129.587 98.311,129.59 98.304,129.587 98.286,129.585 98.2832,129.58 98.2833,129.565 98.2763,129.548 98.2776,129.531 98.2948,129.531 98.2913,129.481 98.2389,129.483 98.2389,129.489 98.2161,129.489 98.2164,129.493 98.1767,129.494 98.1741,129.449 98.155,129.45 97.9438,129.46 97.9526,129.551 97.9603,129.55 97.9756,129.725 97.9196,129.728" style="stroke:black;stroke-width:1" />
<polygon points="97.1416,130.705 97.1417,130.712 97.2727,130.711 97.3727,130.709 97.3736,130.666 97.3548,130.666 97.3547,130.66 97.3558,130.637 97.375,130.637 97.3763,130.55 97.3569,130.55 97.3568,130.522 97.3667,130.523 97.3534,130.345 97.255,130.349 97.0699,130.358 97.0752,130.415 96.9777,130.419 96.979,130.434 96.9831,130.484 97.0415,130.49 97.0421,130.645 97.14,130.646" style="stroke:black;stroke-width:1" />
<polygon points="97.8124,130.167 97.9127,130.162 98.2836,130.152 98.2712,129.932 98.3087,129.931 98.3057,129.843 98.3024,129.756 97.9232,129.771 97.9269,129.816 97.8298,129.821 97.8375,129.909 97.7659,129.913 97.7682,129.951 97.8011,129.95" style="stroke:black;stroke-width:1" />
<polygon points="98.7658,129.951 98.7625,129.868 98.6862,129.869 98.6807,129.707 98.7193,129.707 98.7168,129.606 98.7163,129.592 98.6434,129.593 98.6436,129.601 98.6049,129.601 98.6048,129.616 98.586,129.616 98.5862,129.63 98.5471,129.631 98.5479,129.645 98.5267,129.646 98.5264,129.583 98.4117,129.587 98.4137,129.664 98.3567,129.666 98.3601,129.753 98.3024,129.756 98.3057,129.843 98.4194,129.839 98.4213,129.898 98.5357,129.894 98.5371,129.924 98.6131,129.921 98.6138,129.951 98.652,129.95 98.6521,129.954" style="stroke:black;stroke-width:1" />
<polygon points="96.5844,131.619 96.8328,131.623 96.8516,131.618 96.89,131.614 96.9289,131.599 96.9537,131.57 96.971,131.556 97.0291,131.523 97.0823,131.515 97.1058,131.52 97.1268,131.53 97.1379,131.542 97.1441,131.555 97.1435,131.567 97.1398,131.575 97.1466,131.582 97.167,131.59 97.1768,131.575 97.2146,131.541 97.2288,131.541 97.2436,131.546 97.2708,131.544 97.2894,131.536 97.2912,131.517 97.3017,131.504 97.3105,131.498 97.2898,131.486 97.2695,131.479 97.25,131.477 97.1805,131.485 97.1368,131.47 97.0933,131.46 97.0468,131.458 96.662,131.457 96.6608,131.501 96.5854,131.5" style="stroke:black;stroke-width:1" />
<polygon points="95.1965,131.252 95.5426,131.253 95.5427,131.209 95.6582,131.209 95.6586,131.165 95.6581,130.991 95.6005,130.99 95.1966,130.989" style="stroke:black;stroke-width:1" />
<polygon points="97.5371,129.93 97.5817,129.928 97.5812,129.922 97.7659,129.913 97.8375,129.909 97.8298,129.821 97.9269,129.816 97.9232,129.771 97.9196,129.728 97.9756,129.725 97.9603,129.55 97.9526,129.551 97.8407,129.556 97.7363,129.562 97.7379,129.591 97.62,129.597 97.6254,129.655 97.6338,129.742 97.5959,129.745 97.6037,129.833 97.5274,129.837" style="stroke:black;stroke-width:1" />
<polygon points="96.7564,129.813 96.8166,129.809 96.9623,129.806 97.1757,129.795 97.1568,129.561 97.2681,129.554 97.2593,129.468 97.0017,129.48 97.007,129.49 97.0195,129.49 97.0211,129.501 97.0153,129.507 96.7332,129.516 96.7475,129.695" style="stroke:black;stroke-width:1" />
<polygon points="96.6464,129.198 97.214,129.169 97.1928,128.948 97,128.956 96.7882,128.96 96.7851,128.963 96.789,128.97 96.7827,128.972 96.7865,128.991 96.766,128.999 96.7676,129.002 96.7616,129.006 96.7621,129.01 96.7514,129.01 96.7424,129.015 96.7402,129.013 96.7291,129.016 96.7249,129.02 96.7138,129.024 96.7118,129.03 96.6918,129.04 96.6893,129.043 96.6912,129.045 96.6866,129.047 96.6853,129.052 96.6143,129.055" style="stroke:black;stroke-width:1" />
<polygon points="98.608,131.348 98.6085,131.348 98.7541,131.347 98.9984,131.348 99,131.134 99,130.988 98.913,130.988 98.6064,130.988" style="stroke:black;stroke-width:1" />
<polygon points="95.1875,129.917 95.3755,129.916 95.5143,129.918 95.5212,129.59 95.5211,129.569 95.185,129.567 95.1858,129.727" style="stroke:black;stroke-width:1" />
<polygon points="95.7717,131.166 96.1188,131.168 96.1196,130.92 96.0048,130.92 96.005,130.905 95.89,130.905 95.8904,130.861 95.6594,130.859 95.659,130.904 95.6016,130.903 95.6005,130.99 95.6581,130.991 95.6586,131.165" style="stroke:black;stroke-width:1" />
<polygon points="97.2751,130.996 97.5671,130.993 97.582,130.993 97.5845,130.829 97.5823,130.825 97.5794,130.828 97.579,130.824 97.5828,130.821 97.5816,130.816 97.5919,130.815 97.5921,130.808 97.6114,130.808 97.6129,130.8 97.6104,130.796 97.6212,130.787 97.6215,130.727 97.6607,130.727 97.6629,130.555 97.625,130.551 97.3763,130.55 97.375,130.637 97.3558,130.637 97.3547,130.66 97.3548,130.666 97.3736,130.666 97.3727,130.709 97.2727,130.711" style="stroke:black;stroke-width:1" />
<polygon points="96.7332,129.516 97.0153,129.507 97.0211,129.501 97.0195,129.49 97.007,129.49 97.0017,129.48 97.2593,129.468 97.2513,129.368 97.237,129.208 97.2332,129.168 97.214,129.169 96.6464,129.198 96.6564,129.233 96.6518,129.233 96.6549,129.251 96.652,129.253 96.6445,129.25 96.6405,129.242 96.6376,129.241 96.6342,129.242 96.627,129.248 96.6188,129.25 96.6214,129.259 96.6061,129.268 96.6067,129.275 96.6186,129.278 96.6179,129.285 96.6233,129.291 96.6176,129.295 96.6168,129.316 96.6132,129.323 96.6173,129.327 96.6182,129.339 96.625,129.347 96.6199,129.357 96.6264,129.368 96.6271,129.377" style="stroke:black;stroke-width:1" />
<polygon points="96.5854,131.5 96.6608,131.501 96.662,131.457 97.0468,131.458 97.047,131.43 97.1524,131.43 97.1586,131.29 97.1599,131.255 96.9247,131.257 96.7637,131.253 96.6778,131.255 96.5801,131.254" style="stroke:black;stroke-width:1" />
<polygon points="96.7291,129.016 96.7402,129.013 96.7424,129.015 96.7514,129.01 96.7621,129.01 96.7616,129.006 96.7676,129.002 96.766,128.999 96.7865,128.991 96.7827,128.972 96.789,128.97 96.7851,128.963 96.7882,128.96 97,128.956 97.1928,128.948 97.2465,128.945 97.2379,128.869 97.2392,128.855 97.3498,128.849 97.3408,128.763 97.3385,128.762 97.337,128.748 97.3045,128.75 97.2984,128.691 97.2936,128.677 97.236,128.68 97.2337,128.645 97.2595,128.597 97.1839,128.571 97.1579,128.588 97.1476,128.607 97.1426,128.631 97.1436,128.646 97.1405,128.66 97.1223,128.69 97.13,128.728 97.1286,128.739 97.1206,128.751 97.1057,128.757 97.0762,128.75 97.0567,128.743 97.0306,128.729 97.0186,128.726 97.0003,128.729 96.9865,128.729 96.9864,128.731 96.969,128.726 96.9468,128.696 96.9356,128.689 96.9157,128.681 96.8972,128.677 96.8875,128.672 96.8774,128.659 96.8709,128.64 96.8571,128.625 96.843,128.62 96.7974,128.617 96.7675,128.627 96.7573,128.628 96.7378,128.622 96.7322,128.618" style="stroke:black;stroke-width:1" />
<polygon points="96.5801,131.254 96.6778,131.255 96.7637,131.253 96.9247,131.257 97.1599,131.255 97.1704,130.997 97.1471,130.997 97.1467,130.994 96.8873,130.993 96.5796,130.992 96.5789,131.167" style="stroke:black;stroke-width:1" />
<polygon points="95.5655,130.354 95.5659,130.378 95.6613,130.379 95.6609,130.481 95.9976,130.483 95.9962,130.313 95.9897,130.317 95.9853,130.273 95.9767,130.184 95.7812,130.195 95.7813,130.2 95.5673,130.197 95.5653,130.354 95.5683,130.354" style="stroke:black;stroke-width:1" />
<polygon points="98.6064,130.988 98.913,130.988 98.9131,130.903 98.9125,130.728 98.8012,130.729 98.8008,130.722 98.7626,130.723 98.7586,130.65 98.6821,130.652 98.5525,130.653 98.5639,130.658 98.5638,130.661 98.5418,130.666 98.5385,130.666 98.5297,130.654 98.3499,130.635 98.35,130.668 98.352,130.914 98.5797,130.907 98.5835,130.988" style="stroke:black;stroke-width:1" />
<polygon points="98.3149,131.277 98.4373,131.279 98.4354,131.284 98.4299,131.287 98.4346,131.289 98.4267,131.291 98.427,131.301 98.4246,131.301 98.427,131.303 98.4151,131.308 98.4163,131.316 98.4077,131.329 98.4119,131.339 98.411,131.343 98.4042,131.344 98.4028,131.347 98.4065,131.35 98.402,131.351 98.608,131.348 98.6064,130.988 98.5835,130.988 98.5797,130.907 98.352,130.914 98.3525,130.988 98.3114,130.989" style="stroke:black;stroke-width:1" />
<polygon points="98.9965,131.502 99.4806,131.5 99.4806,131.489 99.4806,131.133 99,131.134 98.9984,131.348 99,131.375 98.998,131.375 98.9975,131.384" style="stroke:black;stroke-width:1" />
<polygon points="98.3499,130.635 98.5297,130.654 98.5385,130.666 98.5418,130.666 98.5638,130.661 98.5639,130.658 98.5525,130.653 98.6821,130.652 98.6782,130.567 98.7351,130.565 98.7299,130.433 98.7245,130.303 98.6652,130.304 98.6618,130.214 98.3772,130.221 98.3838,130.368 98.2876,130.371 98.2907,130.445 98.3302,130.444 98.3375,130.628 98.3305,130.628 98.3306,130.633" style="stroke:black;stroke-width:1" />
<polygon points="96.4798,130.504 96.5816,130.505 96.7519,130.507 96.7514,130.444 96.7524,130.244 96.8277,130.244 96.8297,130.143 96.83,130.107 96.7936,130.108 96.496,130.111 96.5058,130.226 96.4485,130.229" style="stroke:black;stroke-width:1" />
<polygon points="95.1966,130.989 95.6005,130.99 95.6016,130.903 95.659,130.904 95.6594,130.859 95.6599,130.816 95.6025,130.816 95.6032,130.685 95.544,130.685 95.5437,130.728 95.1978,130.728 95.197,130.922" style="stroke:black;stroke-width:1" />
<polygon points="97.2513,129.368 97.3642,129.362 97.3655,129.376 97.4823,129.369 97.4854,129.396 97.7105,129.384 97.7013,129.295 97.7397,129.293 97.7312,129.204 97.6932,129.205 97.677,129.028 97.5646,129.035 97.5752,129.138 97.4596,129.144 97.4632,129.181 97.4254,129.185 97.3889,129.186 97.3484,129.189 97.3498,129.202 97.237,129.208" style="stroke:black;stroke-width:1" />
<polygon points="95.6347,129.59 95.7146,129.589 95.886,129.578 96.0229,129.569 95.9932,129.256 95.7406,129.27 95.7437,129.277 95.7355,129.28 95.738,129.288 95.6846,129.292 95.6468,129.292 95.6633,129.456 95.6599,129.456 95.6679,129.548 95.638,129.542 95.6352,129.544" style="stroke:black;stroke-width:1" />
<polygon points="98.4117,129.587 98.5264,129.583 98.5267,129.646 98.5479,129.645 98.5471,129.631 98.5862,129.63 98.586,129.616 98.6048,129.616 98.6049,129.601 98.6436,129.601 98.6434,129.593 98.7163,129.592 98.7168,129.606 98.7356,129.605 98.7345,129.577 98.753,129.577 98.753,129.579 98.963,129.572 98.9611,129.54 98.9292,129.516 98.9079,129.496 98.8783,129.458 98.8654,129.445 98.8363,129.441 98.8147,129.431 98.7916,129.407 98.7884,129.402 98.7882,129.393 98.7825,129.388 98.7763,129.386 98.7555,129.39 98.7295,129.386 98.7184,129.379 98.698,129.372 98.6549,129.347 98.6429,129.343 98.6286,129.342 98.6158,129.343 98.606,129.352 98.5932,129.388 98.584,129.397 98.5642,129.408 98.5533,129.41 98.5437,129.409 98.5267,129.4 98.5011,129.376 98.483,129.365 98.4654,129.358 98.4423,129.339 98.4348,129.294 98.4346,129.276 98.4296,129.268 98.4143,129.269 98.4047,129.273 98.3914,129.276 98.3785,129.274 98.3437,129.277 98.3223,129.274 98.3104,129.266 98.3035,129.257 98.3032,129.246 98.3088,129.23 98.3075,129.226 98.2989,129.221 98.2744,129.215 98.2782,129.269 98.1816,129.272 98.1833,129.302 98.1642,129.303 98.1652,129.317 98.1464,129.318 98.155,129.45 98.1741,129.449 98.1767,129.494 98.2164,129.493 98.2161,129.489 98.2389,129.489 98.2389,129.483 98.2913,129.481 98.2948,129.531 98.2776,129.531 98.2763,129.548 98.2833,129.565 98.2832,129.58 98.286,129.585 98.304,129.587 98.311,129.59" style="stroke:black;stroke-width:1" />
<polygon points="97.8704,130.992 98.1777,130.988 98.3114,130.989 98.3525,130.988 98.352,130.914 98.35,130.668 98.095,130.667 97.8737,130.668 97.8726,130.804 97.875,130.885 97.872,130.901" style="stroke:black;stroke-width:1" />
<polygon points="95.1939,131.696 95.6005,131.706 95.6015,131.617 95.6186,131.617 95.6192,131.514 95.658,131.514 95.6577,131.485 95.658,131.428 95.196,131.426 95.1952,131.53" style="stroke:black;stroke-width:1" />
<polygon points="96.5844,131.619 96.5854,131.5 96.5801,131.254 96.5789,131.167 96.1188,131.168 96.1167,131.414 96.1276,131.416 96.1457,131.414 96.1543,131.425 96.1842,131.433 96.2177,131.449 96.223,131.463 96.2432,131.462 96.2527,131.466 96.2635,131.482 96.2689,131.485 96.2796,131.487 96.2875,131.493 96.2862,131.501 96.2904,131.522 96.3002,131.534 96.3216,131.548 96.3343,131.549 96.355,131.561 96.3638,131.56 96.3743,131.57 96.3872,131.571 96.3992,131.586 96.4055,131.589 96.4119,131.601 96.43,131.617" style="stroke:black;stroke-width:1" />
<polygon points="96.5796,130.992 96.8873,130.993 96.8886,130.703 96.6952,130.702 96.695,130.687 96.5801,130.687 96.5596,130.688 96.5597,130.702 96.504,130.701 96.5036,130.818 96.484,130.818 96.485,130.905 96.5232,130.905 96.5231,130.948 96.5422,130.948 96.5421,130.992" style="stroke:black;stroke-width:1" />
</svg>
